<svg width="18" height="18" viewBox="0 0 18 18" fill="none" xmlns="http://www.w3.org/2000/svg">
<path fill-rule="evenodd" clip-rule="evenodd" d="M5.03863 4.18489C3.79199 2.85861 2.24744 2 0 2V0C2.8702 0 4.92271 1.14139 6.49592 2.81511C8.02271 4.43943 9.10469 6.57615 10.0966 8.55121C10.1128 8.58342 10.1289 8.61559 10.145 8.64771C11.1487 10.6465 12.0667 12.4747 13.2823 13.8332C14.4695 15.1599 15.9091 16 18 16V18C15.2439 18 13.2893 16.8401 11.7919 15.1668C10.3952 13.606 9.37203 11.5668 8.41702 9.66341C8.38102 9.59167 8.34512 9.52012 8.3093 9.44879C7.29237 7.42385 6.3317 5.56057 5.03863 4.18489Z" fill="black" fill-opacity="0.87"/>
</svg>
