<svg width="364" height="31" viewBox="0 0 364 31" fill="none" xmlns="http://www.w3.org/2000/svg">
<path d="M30 0L0 0L0 31L30 31L30 0Z" fill="#BF46A6"/>
<path d="M60 0L30 0L30 31L60 31V0Z" fill="#C87BC1"/>
<path d="M90 0L60 0L60 31L90 31V0Z" fill="#D3A9D2"/>
<path d="M121 0L90 0V31L121 31V0Z" fill="#E4D4E5"/>
<path d="M158.919 13.3027V16.9995H158.452V13.886L157.51 14.2295V13.8078L158.846 13.3027H158.919Z" fill="white"/>
<path d="M162.704 15.0274V15.4668H160.184V15.0274H162.704ZM161.679 13.9542V16.6308H161.212V13.9542H161.679Z" fill="white"/>
<path d="M193.919 13.3027V16.9995H193.452V13.886L192.51 14.2295V13.8078L193.846 13.3027H193.919Z" fill="white"/>
<path d="M197.704 15.0274V15.4668H195.184V15.0274H197.704ZM196.679 13.9542V16.6308H196.212V13.9542H196.679Z" fill="white"/>
<path d="M259.419 13.3027V16.9995H258.952V13.886L258.01 14.2295V13.8078L259.346 13.3027H259.419Z" fill="white"/>
<path d="M263.204 15.0274V15.4668H260.684V15.0274H263.204ZM262.179 13.9542V16.6308H261.712V13.9542H262.179Z" fill="white"/>
<path d="M13.0488 15.9277V16.8184H10.1895V15.9277H13.0488Z" fill="white"/>
<path d="M19.7578 17.1289V18.0195H13.5938V17.3809L17.4141 11.4688H18.2988L17.3496 13.1797L14.8242 17.1289H19.7578ZM18.5684 11.4688V20H17.4844V11.4688H18.5684Z" fill="white"/>
<path d="M43.0488 15.9277V16.8184H40.1895V15.9277H43.0488Z" fill="black" fill-opacity="0.87"/>
<path d="M45.5742 15.2012H46.3477C46.7266 15.2012 47.0391 15.1387 47.2852 15.0137C47.5352 14.8848 47.7207 14.7109 47.8418 14.4922C47.9668 14.2695 48.0293 14.0195 48.0293 13.7422C48.0293 13.4141 47.9746 13.1387 47.8652 12.916C47.7559 12.6934 47.5918 12.5254 47.373 12.4121C47.1543 12.2988 46.877 12.2422 46.541 12.2422C46.2363 12.2422 45.9668 12.3027 45.7324 12.4238C45.502 12.541 45.3203 12.709 45.1875 12.9277C45.0586 13.1465 44.9941 13.4043 44.9941 13.7012H43.9102C43.9102 13.2676 44.0195 12.873 44.2383 12.5176C44.457 12.1621 44.7637 11.8789 45.1582 11.668C45.5566 11.457 46.0176 11.3516 46.541 11.3516C47.0566 11.3516 47.5078 11.4434 47.8945 11.627C48.2812 11.8066 48.582 12.0762 48.7969 12.4355C49.0117 12.791 49.1191 13.2344 49.1191 13.7656C49.1191 13.9805 49.0684 14.2109 48.9668 14.457C48.8691 14.6992 48.7148 14.9258 48.5039 15.1367C48.2969 15.3477 48.0273 15.5215 47.6953 15.6582C47.3633 15.791 46.9648 15.8574 46.5 15.8574H45.5742V15.2012ZM45.5742 16.0918V15.4414H46.5C47.043 15.4414 47.4922 15.5059 47.8477 15.6348C48.2031 15.7637 48.4824 15.9355 48.6855 16.1504C48.8926 16.3652 49.0371 16.6016 49.1191 16.8594C49.2051 17.1133 49.248 17.3672 49.248 17.6211C49.248 18.0195 49.1797 18.373 49.043 18.6816C48.9102 18.9902 48.7207 19.252 48.4746 19.4668C48.2324 19.6816 47.9473 19.8438 47.6191 19.9531C47.291 20.0625 46.9336 20.1172 46.5469 20.1172C46.1758 20.1172 45.8262 20.0645 45.498 19.959C45.1738 19.8535 44.8867 19.7012 44.6367 19.502C44.3867 19.2988 44.1914 19.0508 44.0508 18.7578C43.9102 18.4609 43.8398 18.123 43.8398 17.7441H44.9238C44.9238 18.041 44.9883 18.3008 45.1172 18.5234C45.25 18.7461 45.4375 18.9199 45.6797 19.0449C45.9258 19.166 46.2148 19.2266 46.5469 19.2266C46.8789 19.2266 47.1641 19.1699 47.4023 19.0566C47.6445 18.9395 47.8301 18.7637 47.959 18.5293C48.0918 18.2949 48.1582 18 48.1582 17.6445C48.1582 17.2891 48.084 16.998 47.9355 16.7715C47.7871 16.541 47.5762 16.3711 47.3027 16.2617C47.0332 16.1484 46.7148 16.0918 46.3477 16.0918H45.5742Z" fill="black" fill-opacity="0.87"/>
<path d="M73.0488 15.9277V16.8184H70.1895V15.9277H73.0488Z" fill="black" fill-opacity="0.87"/>
<path d="M79.582 19.1094V20H73.998V19.2207L76.793 16.1094C77.1367 15.7266 77.4023 15.4023 77.5898 15.1367C77.7812 14.8672 77.9141 14.627 77.9883 14.416C78.0664 14.2012 78.1055 13.9824 78.1055 13.7598C78.1055 13.4785 78.0469 13.2246 77.9297 12.998C77.8164 12.7676 77.6484 12.584 77.4258 12.4473C77.2031 12.3105 76.9336 12.2422 76.6172 12.2422C76.2383 12.2422 75.9219 12.3164 75.668 12.4648C75.418 12.6094 75.2305 12.8125 75.1055 13.0742C74.9805 13.3359 74.918 13.6367 74.918 13.9766H73.834C73.834 13.4961 73.9395 13.0566 74.1504 12.6582C74.3613 12.2598 74.6738 11.9434 75.0879 11.709C75.502 11.4707 76.0117 11.3516 76.6172 11.3516C77.1562 11.3516 77.6172 11.4473 78 11.6387C78.3828 11.8262 78.6758 12.0918 78.8789 12.4355C79.0859 12.7754 79.1895 13.1738 79.1895 13.6309C79.1895 13.8809 79.1465 14.1348 79.0605 14.3926C78.9785 14.6465 78.8633 14.9004 78.7148 15.1543C78.5703 15.4082 78.4004 15.6582 78.2051 15.9043C78.0137 16.1504 77.8086 16.3926 77.5898 16.6309L75.3047 19.1094H79.582Z" fill="black" fill-opacity="0.87"/>
<path d="M103.549 15.9277V16.8184H100.689V15.9277H103.549Z" fill="black" fill-opacity="0.87"/>
<path d="M108.055 11.4219V20H106.971V12.7754L104.785 13.5723V12.5938L107.885 11.4219H108.055Z" fill="black" fill-opacity="0.87"/>
<path d="M121 31L151 31L151 1.90735e-06L121 -7.15335e-07L121 31Z" fill="#C5E0E3"/>
<path d="M151 31L181 31L181 1.90735e-06L151 -7.15335e-07L151 31Z" fill="#85C5D3"/>
<path d="M181 31L213 31L213 1.90735e-06L181 -8.9018e-07L181 31Z" fill="#59A5CC"/>
<path d="M273 31L303 31L303 1.90735e-06L273 -7.15335e-07L273 31Z" fill="#533295"/>
<path d="M213 31L243 31L243 1.90735e-06L213 -7.15335e-07L213 31Z" fill="#5481BD"/>
<path d="M303 31L334 31L334 1.90735e-06L303 -8.02757e-07L303 31Z" fill="#431066"/>
<path d="M334 31L364 31L364 1.90735e-06L334 -7.15335e-07L334 31Z" fill="#1A0B2A"/>
<path d="M135.525 15.4238V16.4434H129.678V15.4238H135.525ZM133.146 12.9336V19.1445H132.062V12.9336H133.146Z" fill="black" fill-opacity="0.87"/>
<path d="M140.301 11.4219V20H139.217V12.7754L137.031 13.5723V12.5938L140.131 11.4219H140.301Z" fill="black" fill-opacity="0.87"/>
<path d="M196.525 15.4238V16.4434H190.678V15.4238H196.525ZM194.146 12.9336V19.1445H193.062V12.9336H194.146Z" fill="black" fill-opacity="0.87"/>
<path d="M199.32 15.2012H200.094C200.473 15.2012 200.785 15.1387 201.031 15.0137C201.281 14.8848 201.467 14.7109 201.588 14.4922C201.713 14.2695 201.775 14.0195 201.775 13.7422C201.775 13.4141 201.721 13.1387 201.611 12.916C201.502 12.6934 201.338 12.5254 201.119 12.4121C200.9 12.2988 200.623 12.2422 200.287 12.2422C199.982 12.2422 199.713 12.3027 199.479 12.4238C199.248 12.541 199.066 12.709 198.934 12.9277C198.805 13.1465 198.74 13.4043 198.74 13.7012H197.656C197.656 13.2676 197.766 12.873 197.984 12.5176C198.203 12.1621 198.51 11.8789 198.904 11.668C199.303 11.457 199.764 11.3516 200.287 11.3516C200.803 11.3516 201.254 11.4434 201.641 11.627C202.027 11.8066 202.328 12.0762 202.543 12.4355C202.758 12.791 202.865 13.2344 202.865 13.7656C202.865 13.9805 202.814 14.2109 202.713 14.457C202.615 14.6992 202.461 14.9258 202.25 15.1367C202.043 15.3477 201.773 15.5215 201.441 15.6582C201.109 15.791 200.711 15.8574 200.246 15.8574H199.32V15.2012ZM199.32 16.0918V15.4414H200.246C200.789 15.4414 201.238 15.5059 201.594 15.6348C201.949 15.7637 202.229 15.9355 202.432 16.1504C202.639 16.3652 202.783 16.6016 202.865 16.8594C202.951 17.1133 202.994 17.3672 202.994 17.6211C202.994 18.0195 202.926 18.373 202.789 18.6816C202.656 18.9902 202.467 19.252 202.221 19.4668C201.979 19.6816 201.693 19.8438 201.365 19.9531C201.037 20.0625 200.68 20.1172 200.293 20.1172C199.922 20.1172 199.572 20.0645 199.244 19.959C198.92 19.8535 198.633 19.7012 198.383 19.502C198.133 19.2988 197.938 19.0508 197.797 18.7578C197.656 18.4609 197.586 18.123 197.586 17.7441H198.67C198.67 18.041 198.734 18.3008 198.863 18.5234C198.996 18.7461 199.184 18.9199 199.426 19.0449C199.672 19.166 199.961 19.2266 200.293 19.2266C200.625 19.2266 200.91 19.1699 201.148 19.0566C201.391 18.9395 201.576 18.7637 201.705 18.5293C201.838 18.2949 201.904 18 201.904 17.6445C201.904 17.2891 201.83 16.998 201.682 16.7715C201.533 16.541 201.322 16.3711 201.049 16.2617C200.779 16.1484 200.461 16.0918 200.094 16.0918H199.32Z" fill="black" fill-opacity="0.87"/>
<path d="M227.525 15.4238V16.4434H221.678V15.4238H227.525ZM225.146 12.9336V19.1445H224.062V12.9336H225.146Z" fill="black" fill-opacity="0.87"/>
<path d="M234.504 17.1289V18.0195H228.34V17.3809L232.16 11.4688H233.045L232.096 13.1797L229.57 17.1289H234.504ZM233.314 11.4688V20H232.23V11.4688H233.314Z" fill="black" fill-opacity="0.87"/>
<path d="M165.525 15.4238V16.4434H159.678V15.4238H165.525ZM163.146 12.9336V19.1445H162.062V12.9336H163.146Z" fill="black" fill-opacity="0.87"/>
<path d="M172.328 19.1094V20H166.744V19.2207L169.539 16.1094C169.883 15.7266 170.148 15.4023 170.336 15.1367C170.527 14.8672 170.66 14.627 170.734 14.416C170.812 14.2012 170.852 13.9824 170.852 13.7598C170.852 13.4785 170.793 13.2246 170.676 12.998C170.562 12.7676 170.395 12.584 170.172 12.4473C169.949 12.3105 169.68 12.2422 169.363 12.2422C168.984 12.2422 168.668 12.3164 168.414 12.4648C168.164 12.6094 167.977 12.8125 167.852 13.0742C167.727 13.3359 167.664 13.6367 167.664 13.9766H166.58C166.58 13.4961 166.686 13.0566 166.896 12.6582C167.107 12.2598 167.42 11.9434 167.834 11.709C168.248 11.4707 168.758 11.3516 169.363 11.3516C169.902 11.3516 170.363 11.4473 170.746 11.6387C171.129 11.8262 171.422 12.0918 171.625 12.4355C171.832 12.7754 171.936 13.1738 171.936 13.6309C171.936 13.8809 171.893 14.1348 171.807 14.3926C171.725 14.6465 171.609 14.9004 171.461 15.1543C171.316 15.4082 171.146 15.6582 170.951 15.9043C170.76 16.1504 170.555 16.3926 170.336 16.6309L168.051 19.1094H172.328Z" fill="black" fill-opacity="0.87"/>
<path d="M243 31L273 31L273 1.90735e-06L243 -7.15335e-07L243 31Z" fill="#545BAA"/>
<path d="M257.525 15.4238V16.4434H251.678V15.4238H257.525ZM255.146 12.9336V19.1445H254.062V12.9336H255.146Z" fill="white"/>
<path d="M260.109 15.9395L259.242 15.7168L259.67 11.4688H264.047V12.4707H260.59L260.332 14.791C260.488 14.7012 260.686 14.6172 260.924 14.5391C261.166 14.4609 261.443 14.4219 261.756 14.4219C262.15 14.4219 262.504 14.4902 262.816 14.627C263.129 14.7598 263.395 14.9512 263.613 15.2012C263.836 15.4512 264.006 15.752 264.123 16.1035C264.24 16.4551 264.299 16.8477 264.299 17.2812C264.299 17.6914 264.242 18.0684 264.129 18.4121C264.02 18.7559 263.854 19.0566 263.631 19.3145C263.408 19.5684 263.127 19.7656 262.787 19.9062C262.451 20.0469 262.055 20.1172 261.598 20.1172C261.254 20.1172 260.928 20.0703 260.619 19.9766C260.314 19.8789 260.041 19.7324 259.799 19.5371C259.561 19.3379 259.365 19.0918 259.213 18.7988C259.064 18.502 258.971 18.1543 258.932 17.7559H259.963C260.01 18.0762 260.104 18.3457 260.244 18.5645C260.385 18.7832 260.568 18.9492 260.795 19.0625C261.025 19.1719 261.293 19.2266 261.598 19.2266C261.855 19.2266 262.084 19.1816 262.283 19.0918C262.482 19.002 262.65 18.873 262.787 18.7051C262.924 18.5371 263.027 18.334 263.098 18.0957C263.172 17.8574 263.209 17.5898 263.209 17.293C263.209 17.0234 263.172 16.7734 263.098 16.543C263.023 16.3125 262.912 16.1113 262.764 15.9395C262.619 15.7676 262.441 15.6348 262.23 15.541C262.02 15.4434 261.777 15.3945 261.504 15.3945C261.141 15.3945 260.865 15.4434 260.678 15.541C260.494 15.6387 260.305 15.7715 260.109 15.9395Z" fill="white"/>
<path d="M287.525 15.4238V16.4434H281.678V15.4238H287.525ZM285.146 12.9336V19.1445H284.062V12.9336H285.146Z" fill="white"/>
<path d="M292.898 11.457H292.992V12.377H292.898C292.324 12.377 291.844 12.4707 291.457 12.6582C291.07 12.8418 290.764 13.0898 290.537 13.4023C290.311 13.7109 290.146 14.0586 290.045 14.4453C289.947 14.832 289.898 15.2246 289.898 15.623V16.877C289.898 17.2559 289.943 17.5918 290.033 17.8848C290.123 18.1738 290.246 18.418 290.402 18.6172C290.559 18.8164 290.734 18.9668 290.93 19.0684C291.129 19.1699 291.336 19.2207 291.551 19.2207C291.801 19.2207 292.023 19.1738 292.219 19.0801C292.414 18.9824 292.578 18.8477 292.711 18.6758C292.848 18.5 292.951 18.293 293.021 18.0547C293.092 17.8164 293.127 17.5547 293.127 17.2695C293.127 17.0156 293.096 16.7715 293.033 16.5371C292.971 16.2988 292.875 16.0879 292.746 15.9043C292.617 15.7168 292.455 15.5703 292.26 15.4648C292.068 15.3555 291.84 15.3008 291.574 15.3008C291.273 15.3008 290.992 15.375 290.73 15.5234C290.473 15.668 290.26 15.8594 290.092 16.0977C289.928 16.332 289.834 16.5879 289.811 16.8652L289.236 16.8594C289.291 16.4219 289.393 16.0488 289.541 15.7402C289.693 15.4277 289.881 15.1738 290.104 14.9785C290.33 14.7793 290.582 14.6348 290.859 14.5449C291.141 14.4512 291.438 14.4043 291.75 14.4043C292.176 14.4043 292.543 14.4844 292.852 14.6445C293.16 14.8047 293.414 15.0195 293.613 15.2891C293.812 15.5547 293.959 15.8555 294.053 16.1914C294.15 16.5234 294.199 16.8652 294.199 17.2168C294.199 17.6191 294.143 17.9961 294.029 18.3477C293.916 18.6992 293.746 19.0078 293.52 19.2734C293.297 19.5391 293.021 19.7461 292.693 19.8945C292.365 20.043 291.984 20.1172 291.551 20.1172C291.09 20.1172 290.688 20.0234 290.344 19.8359C290 19.6445 289.715 19.3906 289.488 19.0742C289.262 18.7578 289.092 18.4062 288.979 18.0195C288.865 17.6328 288.809 17.2402 288.809 16.8418V16.332C288.809 15.7305 288.869 15.1406 288.99 14.5625C289.111 13.9844 289.32 13.4609 289.617 12.9922C289.918 12.5234 290.334 12.1504 290.865 11.873C291.396 11.5957 292.074 11.457 292.898 11.457Z" fill="white"/>
<path d="M348.525 15.4238V16.4434H342.678V15.4238H348.525ZM346.146 12.9336V19.1445H345.062V12.9336H346.146Z" fill="white"/>
<path d="M355.117 17.6914C355.117 18.2109 354.996 18.6523 354.754 19.0156C354.516 19.375 354.191 19.6484 353.781 19.8359C353.375 20.0234 352.916 20.1172 352.404 20.1172C351.893 20.1172 351.432 20.0234 351.021 19.8359C350.611 19.6484 350.287 19.375 350.049 19.0156C349.811 18.6523 349.691 18.2109 349.691 17.6914C349.691 17.3516 349.756 17.041 349.885 16.7598C350.018 16.4746 350.203 16.2266 350.441 16.0156C350.684 15.8047 350.969 15.6426 351.297 15.5293C351.629 15.4121 351.994 15.3535 352.393 15.3535C352.916 15.3535 353.383 15.4551 353.793 15.6582C354.203 15.8574 354.525 16.1328 354.76 16.4844C354.998 16.8359 355.117 17.2383 355.117 17.6914ZM354.027 17.668C354.027 17.3516 353.959 17.0723 353.822 16.8301C353.686 16.584 353.494 16.3926 353.248 16.2559C353.002 16.1191 352.717 16.0508 352.393 16.0508C352.061 16.0508 351.773 16.1191 351.531 16.2559C351.293 16.3926 351.107 16.584 350.975 16.8301C350.842 17.0723 350.775 17.3516 350.775 17.668C350.775 17.9961 350.84 18.2773 350.969 18.5117C351.102 18.7422 351.289 18.9199 351.531 19.0449C351.777 19.166 352.068 19.2266 352.404 19.2266C352.74 19.2266 353.029 19.166 353.271 19.0449C353.514 18.9199 353.699 18.7422 353.828 18.5117C353.961 18.2773 354.027 17.9961 354.027 17.668ZM354.918 13.6895C354.918 14.1035 354.809 14.4766 354.59 14.8086C354.371 15.1406 354.072 15.4023 353.693 15.5938C353.314 15.7852 352.885 15.8809 352.404 15.8809C351.916 15.8809 351.48 15.7852 351.098 15.5938C350.719 15.4023 350.422 15.1406 350.207 14.8086C349.992 14.4766 349.885 14.1035 349.885 13.6895C349.885 13.1934 349.992 12.7715 350.207 12.4238C350.426 12.0762 350.725 11.8105 351.104 11.627C351.482 11.4434 351.914 11.3516 352.398 11.3516C352.887 11.3516 353.32 11.4434 353.699 11.627C354.078 11.8105 354.375 12.0762 354.59 12.4238C354.809 12.7715 354.918 13.1934 354.918 13.6895ZM353.834 13.707C353.834 13.4219 353.773 13.1699 353.652 12.9512C353.531 12.7324 353.363 12.5605 353.148 12.4355C352.934 12.3066 352.684 12.2422 352.398 12.2422C352.113 12.2422 351.863 12.3027 351.648 12.4238C351.438 12.541 351.271 12.709 351.15 12.9277C351.033 13.1465 350.975 13.4062 350.975 13.707C350.975 14 351.033 14.2559 351.15 14.4746C351.271 14.6934 351.439 14.8633 351.654 14.9844C351.869 15.1055 352.119 15.166 352.404 15.166C352.689 15.166 352.938 15.1055 353.148 14.9844C353.363 14.8633 353.531 14.6934 353.652 14.4746C353.773 14.2559 353.834 14 353.834 13.707Z" fill="white"/>
<path d="M318.025 15.4238V16.4434H312.178V15.4238H318.025ZM315.646 12.9336V19.1445H314.562V12.9336H315.646Z" fill="white"/>
<path d="M324.752 11.4688V12.0781L321.219 20H320.076L323.604 12.3594H318.986V11.4688H324.752Z" fill="white"/>
</svg>
