<svg width="364" height="31" viewBox="0 0 364 31" fill="none" xmlns="http://www.w3.org/2000/svg">
<path d="M30 0L0 0L0 31L30 31L30 0Z" fill="#BF46A6"/>
<path d="M60 0L30 0L30 31L60 31V0Z" fill="#C87BC1"/>
<path d="M90 0L60 0L60 31L90 31V0Z" fill="#D3A9D2"/>
<path d="M121 0L90 0V31L121 31V0Z" fill="#E4D4E5"/>
<path d="M158.919 13.3027V16.9995H158.452V13.886L157.51 14.2295V13.8078L158.846 13.3027H158.919Z" fill="white"/>
<path d="M162.704 15.0274V15.4668H160.184V15.0274H162.704ZM161.679 13.9542V16.6308H161.212V13.9542H161.679Z" fill="white"/>
<path d="M193.919 13.3027V16.9995H193.452V13.886L192.51 14.2295V13.8078L193.846 13.3027H193.919Z" fill="white"/>
<path d="M197.704 15.0274V15.4668H195.184V15.0274H197.704ZM196.679 13.9542V16.6308H196.212V13.9542H196.679Z" fill="white"/>
<path d="M259.419 13.3027V16.9995H258.952V13.886L258.01 14.2295V13.8078L259.346 13.3027H259.419Z" fill="white"/>
<path d="M263.204 15.0274V15.4668H260.684V15.0274H263.204ZM262.179 13.9542V16.6308H261.712V13.9542H262.179Z" fill="white"/>
<path d="M13.0488 15.9277V16.8184H10.1895V15.9277H13.0488Z" fill="white"/>
<path d="M19.7578 17.1289V18.0195H13.5938V17.3809L17.4141 11.4688H18.2988L17.3496 13.1797L14.8242 17.1289H19.7578ZM18.5684 11.4688V20H17.4844V11.4688H18.5684Z" fill="white"/>
<path d="M43.0488 15.9277V16.8184H40.1895V15.9277H43.0488Z" fill="black" fill-opacity="0.87"/>
<path d="M45.5742 15.2012H46.3477C46.7266 15.2012 47.0391 15.1387 47.2852 15.0137C47.5352 14.8848 47.7207 14.7109 47.8418 14.4922C47.9668 14.2695 48.0293 14.0195 48.0293 13.7422C48.0293 13.4141 47.9746 13.1387 47.8652 12.916C47.7559 12.6934 47.5918 12.5254 47.373 12.4121C47.1543 12.2988 46.877 12.2422 46.541 12.2422C46.2363 12.2422 45.9668 12.3027 45.7324 12.4238C45.502 12.541 45.3203 12.709 45.1875 12.9277C45.0586 13.1465 44.9941 13.4043 44.9941 13.7012H43.9102C43.9102 13.2676 44.0195 12.873 44.2383 12.5176C44.457 12.1621 44.7637 11.8789 45.1582 11.668C45.5566 11.457 46.0176 11.3516 46.541 11.3516C47.0566 11.3516 47.5078 11.4434 47.8945 11.627C48.2812 11.8066 48.582 12.0762 48.7969 12.4355C49.0117 12.791 49.1191 13.2344 49.1191 13.7656C49.1191 13.9805 49.0684 14.2109 48.9668 14.457C48.8691 14.6992 48.7148 14.9258 48.5039 15.1367C48.2969 15.3477 48.0273 15.5215 47.6953 15.6582C47.3633 15.791 46.9648 15.8574 46.5 15.8574H45.5742V15.2012ZM45.5742 16.0918V15.4414H46.5C47.043 15.4414 47.4922 15.5059 47.8477 15.6348C48.2031 15.7637 48.4824 15.9355 48.6855 16.1504C48.8926 16.3652 49.0371 16.6016 49.1191 16.8594C49.2051 17.1133 49.248 17.3672 49.248 17.6211C49.248 18.0195 49.1797 18.373 49.043 18.6816C48.9102 18.9902 48.7207 19.252 48.4746 19.4668C48.2324 19.6816 47.9473 19.8438 47.6191 19.9531C47.291 20.0625 46.9336 20.1172 46.5469 20.1172C46.1758 20.1172 45.8262 20.0645 45.498 19.959C45.1738 19.8535 44.8867 19.7012 44.6367 19.502C44.3867 19.2988 44.1914 19.0508 44.0508 18.7578C43.9102 18.4609 43.8398 18.123 43.8398 17.7441H44.9238C44.9238 18.041 44.9883 18.3008 45.1172 18.5234C45.25 18.7461 45.4375 18.9199 45.6797 19.0449C45.9258 19.166 46.2148 19.2266 46.5469 19.2266C46.8789 19.2266 47.1641 19.1699 47.4023 19.0566C47.6445 18.9395 47.8301 18.7637 47.959 18.5293C48.0918 18.2949 48.1582 18 48.1582 17.6445C48.1582 17.2891 48.084 16.998 47.9355 16.7715C47.7871 16.541 47.5762 16.3711 47.3027 16.2617C47.0332 16.1484 46.7148 16.0918 46.3477 16.0918H45.5742Z" fill="black" fill-opacity="0.87"/>
<path d="M73.0488 15.9277V16.8184H70.1895V15.9277H73.0488Z" fill="black" fill-opacity="0.87"/>
<path d="M79.582 19.1094V20H73.998V19.2207L76.793 16.1094C77.1367 15.7266 77.4023 15.4023 77.5898 15.1367C77.7812 14.8672 77.9141 14.627 77.9883 14.416C78.0664 14.2012 78.1055 13.9824 78.1055 13.7598C78.1055 13.4785 78.0469 13.2246 77.9297 12.998C77.8164 12.7676 77.6484 12.584 77.4258 12.4473C77.2031 12.3105 76.9336 12.2422 76.6172 12.2422C76.2383 12.2422 75.9219 12.3164 75.668 12.4648C75.418 12.6094 75.2305 12.8125 75.1055 13.0742C74.9805 13.3359 74.918 13.6367 74.918 13.9766H73.834C73.834 13.4961 73.9395 13.0566 74.1504 12.6582C74.3613 12.2598 74.6738 11.9434 75.0879 11.709C75.502 11.4707 76.0117 11.3516 76.6172 11.3516C77.1562 11.3516 77.6172 11.4473 78 11.6387C78.3828 11.8262 78.6758 12.0918 78.8789 12.4355C79.0859 12.7754 79.1895 13.1738 79.1895 13.6309C79.1895 13.8809 79.1465 14.1348 79.0605 14.3926C78.9785 14.6465 78.8633 14.9004 78.7148 15.1543C78.5703 15.4082 78.4004 15.6582 78.2051 15.9043C78.0137 16.1504 77.8086 16.3926 77.5898 16.6309L75.3047 19.1094H79.582Z" fill="black" fill-opacity="0.87"/>
<path d="M103.549 15.9277V16.8184H100.689V15.9277H103.549Z" fill="black" fill-opacity="0.87"/>
<path d="M108.055 11.4219V20H106.971V12.7754L104.785 13.5723V12.5938L107.885 11.4219H108.055Z" fill="black" fill-opacity="0.87"/>
<path d="M121 31L151 31L151 1.90735e-06L121 -7.15335e-07L121 31Z" fill="#C5E0E3"/>
<path d="M151 31L181 31L181 1.90735e-06L151 -7.15335e-07L151 31Z" fill="#85C5D3"/>
<path d="M181 31L213 31L213 1.90735e-06L181 -8.9018e-07L181 31Z" fill="#59A5CC"/>
<path d="M273 31L303 31L303 1.90735e-06L273 -7.15335e-07L273 31Z" fill="#533295"/>
<path d="M213 31L243 31L243 1.90735e-06L213 -7.15335e-07L213 31Z" fill="#5481BD"/>
<path d="M303 31L334 31L334 1.90735e-06L303 -8.02757e-07L303 31Z" fill="#431066"/>
<path d="M334 31L364 31L364 1.90735e-06L334 -7.15335e-07L334 31Z" fill="#1A0B2A"/>
<path d="M133.492 11.4219V20H132.408V12.7754L130.223 13.5723V12.5938L133.322 11.4219H133.492Z" fill="black" fill-opacity="0.87"/>
<path d="M142.275 15.4238V16.4434H136.428V15.4238H142.275ZM139.896 12.9336V19.1445H138.812V12.9336H139.896Z" fill="black" fill-opacity="0.87"/>
<path d="M192.512 15.2012H193.285C193.664 15.2012 193.977 15.1387 194.223 15.0137C194.473 14.8848 194.658 14.7109 194.779 14.4922C194.904 14.2695 194.967 14.0195 194.967 13.7422C194.967 13.4141 194.912 13.1387 194.803 12.916C194.693 12.6934 194.529 12.5254 194.311 12.4121C194.092 12.2988 193.814 12.2422 193.479 12.2422C193.174 12.2422 192.904 12.3027 192.67 12.4238C192.439 12.541 192.258 12.709 192.125 12.9277C191.996 13.1465 191.932 13.4043 191.932 13.7012H190.848C190.848 13.2676 190.957 12.873 191.176 12.5176C191.395 12.1621 191.701 11.8789 192.096 11.668C192.494 11.457 192.955 11.3516 193.479 11.3516C193.994 11.3516 194.445 11.4434 194.832 11.627C195.219 11.8066 195.52 12.0762 195.734 12.4355C195.949 12.791 196.057 13.2344 196.057 13.7656C196.057 13.9805 196.006 14.2109 195.904 14.457C195.807 14.6992 195.652 14.9258 195.441 15.1367C195.234 15.3477 194.965 15.5215 194.633 15.6582C194.301 15.791 193.902 15.8574 193.438 15.8574H192.512V15.2012ZM192.512 16.0918V15.4414H193.438C193.98 15.4414 194.43 15.5059 194.785 15.6348C195.141 15.7637 195.42 15.9355 195.623 16.1504C195.83 16.3652 195.975 16.6016 196.057 16.8594C196.143 17.1133 196.186 17.3672 196.186 17.6211C196.186 18.0195 196.117 18.373 195.98 18.6816C195.848 18.9902 195.658 19.252 195.412 19.4668C195.17 19.6816 194.885 19.8438 194.557 19.9531C194.229 20.0625 193.871 20.1172 193.484 20.1172C193.113 20.1172 192.764 20.0645 192.436 19.959C192.111 19.8535 191.824 19.7012 191.574 19.502C191.324 19.2988 191.129 19.0508 190.988 18.7578C190.848 18.4609 190.777 18.123 190.777 17.7441H191.861C191.861 18.041 191.926 18.3008 192.055 18.5234C192.188 18.7461 192.375 18.9199 192.617 19.0449C192.863 19.166 193.152 19.2266 193.484 19.2266C193.816 19.2266 194.102 19.1699 194.34 19.0566C194.582 18.9395 194.768 18.7637 194.896 18.5293C195.029 18.2949 195.096 18 195.096 17.6445C195.096 17.2891 195.021 16.998 194.873 16.7715C194.725 16.541 194.514 16.3711 194.24 16.2617C193.971 16.1484 193.652 16.0918 193.285 16.0918H192.512Z" fill="black" fill-opacity="0.87"/>
<path d="M203.275 15.4238V16.4434H197.428V15.4238H203.275ZM200.896 12.9336V19.1445H199.812V12.9336H200.896Z" fill="black" fill-opacity="0.87"/>
<path d="M227.695 17.1289V18.0195H221.531V17.3809L225.352 11.4688H226.236L225.287 13.1797L222.762 17.1289H227.695ZM226.506 11.4688V20H225.422V11.4688H226.506Z" fill="black" fill-opacity="0.87"/>
<path d="M234.275 15.4238V16.4434H228.428V15.4238H234.275ZM231.896 12.9336V19.1445H230.812V12.9336H231.896Z" fill="black" fill-opacity="0.87"/>
<path d="M165.52 19.1094V20H159.936V19.2207L162.73 16.1094C163.074 15.7266 163.34 15.4023 163.527 15.1367C163.719 14.8672 163.852 14.627 163.926 14.416C164.004 14.2012 164.043 13.9824 164.043 13.7598C164.043 13.4785 163.984 13.2246 163.867 12.998C163.754 12.7676 163.586 12.584 163.363 12.4473C163.141 12.3105 162.871 12.2422 162.555 12.2422C162.176 12.2422 161.859 12.3164 161.605 12.4648C161.355 12.6094 161.168 12.8125 161.043 13.0742C160.918 13.3359 160.855 13.6367 160.855 13.9766H159.771C159.771 13.4961 159.877 13.0566 160.088 12.6582C160.299 12.2598 160.611 11.9434 161.025 11.709C161.439 11.4707 161.949 11.3516 162.555 11.3516C163.094 11.3516 163.555 11.4473 163.938 11.6387C164.32 11.8262 164.613 12.0918 164.816 12.4355C165.023 12.7754 165.127 13.1738 165.127 13.6309C165.127 13.8809 165.084 14.1348 164.998 14.3926C164.916 14.6465 164.801 14.9004 164.652 15.1543C164.508 15.4082 164.338 15.6582 164.143 15.9043C163.951 16.1504 163.746 16.3926 163.527 16.6309L161.242 19.1094H165.52Z" fill="black" fill-opacity="0.87"/>
<path d="M172.275 15.4238V16.4434H166.428V15.4238H172.275ZM169.896 12.9336V19.1445H168.812V12.9336H169.896Z" fill="black" fill-opacity="0.87"/>
<path d="M243 31L273 31L273 1.90735e-06L243 -7.15335e-07L243 31Z" fill="#545BAA"/>
<path d="M253.301 15.9395L252.434 15.7168L252.861 11.4688H257.238V12.4707H253.781L253.523 14.791C253.68 14.7012 253.877 14.6172 254.115 14.5391C254.357 14.4609 254.635 14.4219 254.947 14.4219C255.342 14.4219 255.695 14.4902 256.008 14.627C256.32 14.7598 256.586 14.9512 256.805 15.2012C257.027 15.4512 257.197 15.752 257.314 16.1035C257.432 16.4551 257.49 16.8477 257.49 17.2812C257.49 17.6914 257.434 18.0684 257.32 18.4121C257.211 18.7559 257.045 19.0566 256.822 19.3145C256.6 19.5684 256.318 19.7656 255.979 19.9062C255.643 20.0469 255.246 20.1172 254.789 20.1172C254.445 20.1172 254.119 20.0703 253.811 19.9766C253.506 19.8789 253.232 19.7324 252.99 19.5371C252.752 19.3379 252.557 19.0918 252.404 18.7988C252.256 18.502 252.162 18.1543 252.123 17.7559H253.154C253.201 18.0762 253.295 18.3457 253.436 18.5645C253.576 18.7832 253.76 18.9492 253.986 19.0625C254.217 19.1719 254.484 19.2266 254.789 19.2266C255.047 19.2266 255.275 19.1816 255.475 19.0918C255.674 19.002 255.842 18.873 255.979 18.7051C256.115 18.5371 256.219 18.334 256.289 18.0957C256.363 17.8574 256.4 17.5898 256.4 17.293C256.4 17.0234 256.363 16.7734 256.289 16.543C256.215 16.3125 256.104 16.1113 255.955 15.9395C255.811 15.7676 255.633 15.6348 255.422 15.541C255.211 15.4434 254.969 15.3945 254.695 15.3945C254.332 15.3945 254.057 15.4434 253.869 15.541C253.686 15.6387 253.496 15.7715 253.301 15.9395Z" fill="white"/>
<path d="M264.275 15.4238V16.4434H258.428V15.4238H264.275ZM261.896 12.9336V19.1445H260.812V12.9336H261.896Z" fill="white"/>
<path d="M286.09 11.457H286.184V12.377H286.09C285.516 12.377 285.035 12.4707 284.648 12.6582C284.262 12.8418 283.955 13.0898 283.729 13.4023C283.502 13.7109 283.338 14.0586 283.236 14.4453C283.139 14.832 283.09 15.2246 283.09 15.623V16.877C283.09 17.2559 283.135 17.5918 283.225 17.8848C283.314 18.1738 283.438 18.418 283.594 18.6172C283.75 18.8164 283.926 18.9668 284.121 19.0684C284.32 19.1699 284.527 19.2207 284.742 19.2207C284.992 19.2207 285.215 19.1738 285.41 19.0801C285.605 18.9824 285.77 18.8477 285.902 18.6758C286.039 18.5 286.143 18.293 286.213 18.0547C286.283 17.8164 286.318 17.5547 286.318 17.2695C286.318 17.0156 286.287 16.7715 286.225 16.5371C286.162 16.2988 286.066 16.0879 285.938 15.9043C285.809 15.7168 285.646 15.5703 285.451 15.4648C285.26 15.3555 285.031 15.3008 284.766 15.3008C284.465 15.3008 284.184 15.375 283.922 15.5234C283.664 15.668 283.451 15.8594 283.283 16.0977C283.119 16.332 283.025 16.5879 283.002 16.8652L282.428 16.8594C282.482 16.4219 282.584 16.0488 282.732 15.7402C282.885 15.4277 283.072 15.1738 283.295 14.9785C283.521 14.7793 283.773 14.6348 284.051 14.5449C284.332 14.4512 284.629 14.4043 284.941 14.4043C285.367 14.4043 285.734 14.4844 286.043 14.6445C286.352 14.8047 286.605 15.0195 286.805 15.2891C287.004 15.5547 287.15 15.8555 287.244 16.1914C287.342 16.5234 287.391 16.8652 287.391 17.2168C287.391 17.6191 287.334 17.9961 287.221 18.3477C287.107 18.6992 286.938 19.0078 286.711 19.2734C286.488 19.5391 286.213 19.7461 285.885 19.8945C285.557 20.043 285.176 20.1172 284.742 20.1172C284.281 20.1172 283.879 20.0234 283.535 19.8359C283.191 19.6445 282.906 19.3906 282.68 19.0742C282.453 18.7578 282.283 18.4062 282.17 18.0195C282.057 17.6328 282 17.2402 282 16.8418V16.332C282 15.7305 282.061 15.1406 282.182 14.5625C282.303 13.9844 282.512 13.4609 282.809 12.9922C283.109 12.5234 283.525 12.1504 284.057 11.873C284.588 11.5957 285.266 11.457 286.09 11.457Z" fill="white"/>
<path d="M294.275 15.4238V16.4434H288.428V15.4238H294.275ZM291.896 12.9336V19.1445H290.812V12.9336H291.896Z" fill="white"/>
<path d="M348.309 17.6914C348.309 18.2109 348.188 18.6523 347.945 19.0156C347.707 19.375 347.383 19.6484 346.973 19.8359C346.566 20.0234 346.107 20.1172 345.596 20.1172C345.084 20.1172 344.623 20.0234 344.213 19.8359C343.803 19.6484 343.479 19.375 343.24 19.0156C343.002 18.6523 342.883 18.2109 342.883 17.6914C342.883 17.3516 342.947 17.041 343.076 16.7598C343.209 16.4746 343.395 16.2266 343.633 16.0156C343.875 15.8047 344.16 15.6426 344.488 15.5293C344.82 15.4121 345.186 15.3535 345.584 15.3535C346.107 15.3535 346.574 15.4551 346.984 15.6582C347.395 15.8574 347.717 16.1328 347.951 16.4844C348.189 16.8359 348.309 17.2383 348.309 17.6914ZM347.219 17.668C347.219 17.3516 347.15 17.0723 347.014 16.8301C346.877 16.584 346.686 16.3926 346.439 16.2559C346.193 16.1191 345.908 16.0508 345.584 16.0508C345.252 16.0508 344.965 16.1191 344.723 16.2559C344.484 16.3926 344.299 16.584 344.166 16.8301C344.033 17.0723 343.967 17.3516 343.967 17.668C343.967 17.9961 344.031 18.2773 344.16 18.5117C344.293 18.7422 344.48 18.9199 344.723 19.0449C344.969 19.166 345.26 19.2266 345.596 19.2266C345.932 19.2266 346.221 19.166 346.463 19.0449C346.705 18.9199 346.891 18.7422 347.02 18.5117C347.152 18.2773 347.219 17.9961 347.219 17.668ZM348.109 13.6895C348.109 14.1035 348 14.4766 347.781 14.8086C347.562 15.1406 347.264 15.4023 346.885 15.5938C346.506 15.7852 346.076 15.8809 345.596 15.8809C345.107 15.8809 344.672 15.7852 344.289 15.5938C343.91 15.4023 343.613 15.1406 343.398 14.8086C343.184 14.4766 343.076 14.1035 343.076 13.6895C343.076 13.1934 343.184 12.7715 343.398 12.4238C343.617 12.0762 343.916 11.8105 344.295 11.627C344.674 11.4434 345.105 11.3516 345.59 11.3516C346.078 11.3516 346.512 11.4434 346.891 11.627C347.27 11.8105 347.566 12.0762 347.781 12.4238C348 12.7715 348.109 13.1934 348.109 13.6895ZM347.025 13.707C347.025 13.4219 346.965 13.1699 346.844 12.9512C346.723 12.7324 346.555 12.5605 346.34 12.4355C346.125 12.3066 345.875 12.2422 345.59 12.2422C345.305 12.2422 345.055 12.3027 344.84 12.4238C344.629 12.541 344.463 12.709 344.342 12.9277C344.225 13.1465 344.166 13.4062 344.166 13.707C344.166 14 344.225 14.2559 344.342 14.4746C344.463 14.6934 344.631 14.8633 344.846 14.9844C345.061 15.1055 345.311 15.166 345.596 15.166C345.881 15.166 346.129 15.1055 346.34 14.9844C346.555 14.8633 346.723 14.6934 346.844 14.4746C346.965 14.2559 347.025 14 347.025 13.707Z" fill="white"/>
<path d="M355.275 15.4238V16.4434H349.428V15.4238H355.275ZM352.896 12.9336V19.1445H351.812V12.9336H352.896Z" fill="white"/>
<path d="M317.943 11.4688V12.0781L314.41 20H313.268L316.795 12.3594H312.178V11.4688H317.943Z" fill="white"/>
<path d="M324.775 15.4238V16.4434H318.928V15.4238H324.775ZM322.396 12.9336V19.1445H321.312V12.9336H322.396Z" fill="white"/>
</svg>
