<?xml version="1.0" encoding="UTF-8"?>
<svg width="98px" height="26px" viewBox="0 0 98 26" version="1.1" xmlns="http://www.w3.org/2000/svg" xmlns:xlink="http://www.w3.org/1999/xlink">
    <!-- Generator: Sketch 52.6 (67491) - http://www.bohemiancoding.com/sketch -->
    <title>wordmark</title>
    <desc>Created with Sketch.</desc>
    <g id="Symbols" stroke="none" stroke-width="1" fill="none" fill-rule="evenodd">
        <g id="Global-Nav-/-Default-/-1440" transform="translate(-144.000000, -13.000000)">
            <g id="Group-Copy">
                <g id="tri_logo_landscape_darkbg" transform="translate(144.000000, 13.000000)">
                    <g id="wordmark">
                        <g>
                            <g>
                                <path d="M6.7667474,24.494026 C6.7667474,24.494026 7.24487889,25.3044156 7.72131488,25.5796104 C8.19775087,25.8548052 9.13875433,25.8581818 9.13875433,25.8581818 L22.4687889,25.8581818 C22.4687889,25.8581818 17.1245675,25.6893506 10.0204152,21.6103896 C2.91626298,17.5314286 0.103425606,13 0.103425606,13 L6.7667474,24.494026 Z" id="Path" fill="#808285"></path>
                                <path d="M29.1355017,14.3641558 C29.1355017,14.3641558 29.6000692,13.547013 29.6000692,13 C29.6000692,12.452987 29.1355017,11.6375325 29.1355017,11.6375325 L22.4687889,0.141818182 C22.4687889,0.141818182 24.9984775,4.84038961 24.9984775,13 C24.9984775,21.1596104 22.4687889,25.8581818 22.4687889,25.8581818 L29.1355017,14.3641558 Z" id="Path" fill="#FFFFFF"></path>
                                <path d="M9.14044983,0.141818182 C9.14044983,0.141818182 8.19775087,0.141818182 7.72131488,0.422077922 C7.24487889,0.702337662 6.7667474,1.50597403 6.7667474,1.50597403 L0.103425606,13 C0.103425606,13 2.92474048,8.46857143 10.0204152,4.38961039 C17.11609,0.310649351 22.4687889,0.141818182 22.4687889,0.141818182 L9.14044983,0.141818182 Z" id="Path" fill="#ED1B2F"></path>
                                <polygon id="Path" fill="#ED1B2F" points="39.0372318 7.42012987 33.5302422 7.42012987 33.5302422 8.63402597 35.5631488 8.63402597 35.5614533 13.8053247 37.0043253 13.8053247 37.0043253 8.63402597 39.0372318 8.63402597"></polygon>
                                <path d="M42.7571626,7.22935065 C40.8843631,7.22935065 39.3661592,8.74111643 39.3661592,10.605974 C39.3661592,12.4708316 40.8843631,13.9825974 42.7571626,13.9825974 C44.6299621,13.9825974 46.1481661,12.4708316 46.1481661,10.605974 C46.1481661,8.74111643 44.6299621,7.22935065 42.7571626,7.22935065 M44.4221453,11.6358442 C44.1984553,12.2036964 43.6943313,12.6148775 43.0911765,12.7214286 C42.8701586,12.759695 42.6441666,12.759695 42.4231488,12.7214286 C41.819994,12.6148775 41.3158699,12.2036964 41.0921799,11.6358442 C40.8321269,10.9771778 40.8321269,10.2449002 41.0921799,9.58623377 C41.3177131,9.02003146 41.8210897,8.61009852 42.4231488,8.50233766 C42.6441666,8.46407125 42.8701586,8.46407125 43.0911765,8.50233766 C43.6932355,8.61009852 44.1966122,9.02003146 44.4221453,9.58623377 C44.6821984,10.2449002 44.6821984,10.9771778 44.4221453,11.6358442" id="Shape" fill="#ED1B2F" fill-rule="nonzero"></path>
                                <polygon id="Path" fill="#ED1B2F" points="46.1786851 7.42012987 47.8758824 7.42012987 49.462872 10.1653247 51.0481661 7.42012987 52.7470588 7.42012987 50.1834602 11.4416883 50.1834602 13.8036364 48.7422837 13.8036364 48.7422837 11.4416883"></polygon>
                                <path d="M52.7741869,10.6127273 C52.7741869,8.74786968 54.2923908,7.2361039 56.1651903,7.2361039 C58.0379898,7.2361039 59.5561938,8.74786968 59.5561938,10.6127273 C59.5561938,12.4775849 58.0379898,13.9893506 56.1651903,13.9893506 C54.2923908,13.9893506 52.7741869,12.4775849 52.7741869,10.6127273 M56.1651903,12.7518182 C56.2788919,12.751434 56.3923474,12.7412663 56.5042907,12.7214286 C57.1069159,12.6148933 57.6108204,12.2045306 57.8352595,11.6375325 C58.095252,10.9782717 58.095252,10.2454946 57.8352595,9.58623377 C57.6097264,9.02003146 57.1063497,8.61009852 56.5042907,8.50233766 C56.2832728,8.46407125 56.0572808,8.46407125 55.836263,8.50233766 C55.2342039,8.61009852 54.7308273,9.02003146 54.5052941,9.58623377 C54.2453017,10.2454946 54.2453017,10.9782717 54.5052941,11.6375325 C54.7297333,12.2045306 55.2336377,12.6148933 55.836263,12.7214286 C55.9482062,12.7412663 56.0616618,12.751434 56.1753633,12.7518182" id="Shape" fill="#ED1B2F" fill-rule="nonzero"></path>
                                <path d="M69.8258478,12.3938961 L67.0977855,12.3938961 L66.5721799,13.8002597 L64.9682353,13.8002597 L67.5640484,7.41675325 L69.3595848,7.41675325 L71.9553979,13.8002597 L70.3531488,13.8002597 L69.8258478,12.3938961 Z M69.4070588,11.2762338 L68.4626644,8.75558442 L67.5165744,11.2762338 L69.4070588,11.2762338 Z" id="Shape" fill="#ED1B2F" fill-rule="nonzero"></path>
                                <polygon id="Path" fill="#ED1B2F" points="65.3921107 7.42012987 59.8834256 7.42012987 59.8834256 8.63402597 61.9163322 8.63402597 61.9163322 13.8053247 63.3592042 13.8053247 63.3592042 8.63402597 65.3921107 8.63402597"></polygon>
                                <polygon id="Path" fill="#808285" points="77.5285121 16.7176623 78.7272318 16.7176623 78.7272318 19.7650649 79.5783737 19.7650649 79.5766782 16.7176623 80.7753979 16.7176623 80.7753979 16.0018182 77.5285121 16.0018182"></polygon>
                                <polygon id="Path" fill="#808285" points="82.9693772 16.7176623 84.1680969 16.7176623 84.1680969 19.7650649 85.0175433 19.7650649 85.0175433 16.7176623 86.216263 16.7176623 86.216263 16.0018182 82.9693772 16.0018182"></polygon>
                                <polygon id="Path" fill="#808285" points="90.8822837 16.7176623 92.0810035 16.7176623 92.0810035 19.7650649 92.9321453 19.7650649 92.9321453 16.7176623 94.1291696 16.7176623 94.1291696 16.0018182 90.8822837 16.0018182"></polygon>
                                <polygon id="Path" fill="#808285" points="72.0113495 18.2742857 70.3887543 16.0018182 69.539308 16.0018182 69.539308 19.7650649 70.3887543 19.7650649 70.3887543 17.4942857 72.0113495 19.7650649 72.8624913 19.7650649 72.8624913 16.0018182 72.0113495 16.0018182"></polygon>
                                <rect id="Rectangle" fill="#808285" x="67.7980277" y="16.0035065" width="1" height="3.76324675"></rect>
                                <rect id="Rectangle" fill="#808285" x="81.4468166" y="16.0035065" width="1" height="3.76324675"></rect>
                                <path d="M89.3614187,18.1966234 C89.3614187,18.8466234 89.1477855,19.1454545 88.5492734,19.1454545 C87.9507612,19.1454545 87.7388235,18.8466234 87.7388235,18.1966234 L87.7388235,16.0018182 L86.8910727,16.0018182 L86.8910727,18.5072727 C86.8910727,19.342987 87.6201384,19.8781818 88.5526644,19.8781818 C89.4851903,19.8781818 90.2142561,19.342987 90.2142561,18.5072727 L90.2142561,16.0018182 L89.3665052,16.0018182 L89.3614187,18.1966234 Z" id="Path" fill="#808285"></path>
                                <path d="M75.3006228,17.495974 C74.8360554,17.4216883 74.6224221,17.2612987 74.6224221,17.0333766 C74.6224221,16.7446753 74.8818339,16.6231169 75.3006228,16.6231169 C75.7194118,16.6231169 75.970346,16.7193506 75.970346,17.1093506 L76.8757439,17.1093506 C76.8757439,16.2550649 76.1805882,15.8903896 75.3006228,15.8903896 C74.4206574,15.8903896 73.7221107,16.2550649 73.7221107,17.1093506 C73.7221107,17.7964935 74.4647405,18.0480519 75.3006228,18.1848052 C75.963564,18.2928571 76.0839446,18.4802597 76.0839446,18.6592208 C76.0839446,19.0998701 75.7092388,19.1437662 75.3006228,19.1437662 C74.8920069,19.1437662 74.5156055,19.0222078 74.5156055,18.5832468 L73.6085121,18.5832468 C73.6085121,19.5371429 74.4172664,19.8781818 75.3040138,19.8781818 C76.1907612,19.8781818 76.9995156,19.5405195 76.9995156,18.5832468 C76.9995156,17.8555844 76.1280277,17.6293506 75.3040138,17.495974" id="Path" fill="#808285"></path>
                                <polygon id="Path" fill="#FFFFFF" points="38.4438062 18.2033766 40.3478547 18.2033766 40.3478547 17.4892208 38.4438062 17.4892208 38.4438062 16.7176623 40.6513495 16.7176623 40.6513495 16.0018182 37.5943599 16.0018182 37.5926644 16.0018182 37.5926644 19.7650649 37.5943599 19.7650649 40.6886505 19.7650649 40.6886505 19.0509091 38.4438062 19.0509091"></polygon>
                                <polygon id="Path" fill="#FFFFFF" points="46.2651557 18.2033766 48.1675087 18.2033766 48.1675087 17.4892208 46.2651557 17.4892208 46.2651557 16.7176623 48.4710035 16.7176623 48.4710035 16.0018182 45.4140138 16.0018182 45.4140138 19.7650649 48.51 19.7650649 48.51 19.0509091 46.2651557 19.0509091"></polygon>
                                <polygon id="Path" fill="#FFFFFF" points="64.4731488 16.0018182 64.4731488 17.4892208 62.8505536 17.4892208 62.8505536 16.0018182 62.0011073 16.0018182 62.0011073 17.4892208 62.0011073 18.2033766 62.0011073 19.7650649 62.8505536 19.7650649 62.8505536 18.2033766 64.4731488 18.2033766 64.4731488 19.7650649 65.3242907 19.7650649 65.3242907 18.2033766 65.3242907 17.4892208 65.3242907 16.0018182"></polygon>
                                <path d="M36.7381315,17.1228571 C36.7381315,16.428961 36.3685121,16.0018182 35.4088581,16.0018182 L33.5285467,16.0018182 L33.5285467,19.7650649 L34.3762976,19.7650649 L34.3762976,18.2455844 L35.0341522,18.2455844 L35.9632872,19.7650649 L36.9805882,19.7650649 L36.0056747,18.1662338 C36.5143253,18.015974 36.7313495,17.6445455 36.7313495,17.1228571 M35.4783737,17.5263636 L34.3729066,17.5263636 L34.3729066,16.7142857 L35.4783737,16.7142857 C35.6924704,16.7280685 35.8590412,16.9050025 35.8590412,17.1186364 C35.8590412,17.3322702 35.6924704,17.5092042 35.4783737,17.522987" id="Shape" fill="#FFFFFF" fill-rule="nonzero"></path>
                                <path d="M56.843391,17.1228571 C56.843391,16.428961 56.4754671,16.0018182 55.5141176,16.0018182 L53.6355017,16.0018182 L53.6355017,19.7650649 L54.4832526,19.7650649 L54.4832526,18.2455844 L55.1411073,18.2455844 L56.0702422,19.7650649 L57.0875433,19.7650649 L56.1211073,18.1662338 C56.6297578,18.015974 56.846782,17.6445455 56.846782,17.1228571 M55.5938062,17.5263636 L54.4883391,17.5263636 L54.4883391,16.7142857 L55.5938062,16.7142857 C55.8079029,16.7280685 55.9744737,16.9050025 55.9744737,17.1186364 C55.9744737,17.3322702 55.8079029,17.5092042 55.5938062,17.522987" id="Shape" fill="#FFFFFF" fill-rule="nonzero"></path>
                                <path d="M59.2476125,16.64 C59.3777574,16.6174959 59.5108239,16.6174959 59.6409689,16.64 C59.9722469,16.6999057 60.253974,16.9156514 60.3971626,17.2190909 L61.3313841,17.2190909 C61.0063867,16.3024493 60.0653746,15.7523532 59.1031656,15.9165208 C58.1409567,16.0806884 57.4375339,16.9113504 57.4375339,17.8834416 C57.4375339,18.8555327 58.1409567,19.6861947 59.1031656,19.8503623 C60.0653746,20.01453 61.0063867,19.4644338 61.3313841,18.5477922 L60.3971626,18.5477922 C60.2553519,18.8523321 59.9729612,19.0685861 59.6409689,19.1268831 C59.5110296,19.1516506 59.3775517,19.1516506 59.2476125,19.1268831 C58.8920328,19.0651312 58.594506,18.8232561 58.4625952,18.4887013 C58.3111389,18.0998693 58.3111389,17.6687022 58.4625952,17.2798701 C58.5954088,16.945661 58.8923565,16.703618 59.2476125,16.64" id="Path" fill="#FFFFFF"></path>
                                <path d="M42.9674048,17.495974 C42.5028374,17.4216883 42.2976817,17.2612987 42.2976817,17.0333766 C42.2976817,16.7446753 42.5570934,16.6231169 42.9674048,16.6231169 C43.3777163,16.6231169 43.637128,16.7193506 43.637128,17.1093506 L44.5442215,17.1093506 C44.5442215,16.2550649 43.8490657,15.8903896 42.9674048,15.8903896 C42.0857439,15.8903896 41.3905882,16.2550649 41.3905882,17.1093506 C41.3905882,17.7964935 42.1315225,18.0480519 42.9674048,18.1848052 C43.6320415,18.2928571 43.7507266,18.4802597 43.7507266,18.6592208 C43.7507266,19.0998701 43.3760208,19.1437662 42.9674048,19.1437662 C42.5587889,19.1437662 42.1823875,19.0222078 42.1823875,18.5832468 L41.2769896,18.5832468 C41.2769896,19.5371429 42.0840484,19.8781818 42.9724913,19.8781818 C43.8609343,19.8781818 44.6679931,19.5405195 44.6679931,18.5832468 C44.6679931,17.8555844 43.7965052,17.6293506 42.9724913,17.495974" id="Path" fill="#FFFFFF"></path>
                                <path d="M51.5517301,16.0001299 L50.493737,16.0001299 L48.9677855,19.7633766 L49.9138754,19.7633766 L50.2224567,18.9344156 L51.8314879,18.9344156 L52.1417647,19.7633766 L53.0878547,19.7633766 L51.5517301,16.0001299 Z M50.466609,18.275974 L51.0227336,16.7902597 L51.5805536,18.275974 L50.466609,18.275974 Z" id="Shape" fill="#FFFFFF" fill-rule="nonzero"></path>
                                <polygon id="Path" fill="#808285" points="95.6517301 19.0509091 95.6517301 18.2033766 97.5557785 18.2033766 97.5557785 17.4892208 95.6517301 17.4892208 95.6517301 16.7176623 97.8592734 16.7176623 97.8592734 16.0018182 94.8022837 16.0018182 94.8005882 16.0018182 94.8005882 19.7650649 94.8022837 19.7650649 97.8965744 19.7650649 97.8965744 19.0509091"></polygon>
                            </g>
                        </g>
                    </g>
                </g>
            </g>
        </g>
    </g>
</svg>