<svg width="30" height="8" viewBox="0 0 30 8" fill="none" xmlns="http://www.w3.org/2000/svg">
<path d="M4 8L3.49691e-07 4L4 -1.04907e-06L4 3L8 3L8 5L4 5L4 8ZM11 5C11.55 5 12 4.55 12 4C12 3.45 11.55 3 11 3C10.45 3 10 3.45 10 4C10 4.55 10.45 5 11 5ZM15 5C15.55 5 16 4.55 16 4C16 3.45 15.55 3 15 3C14.45 3 14 3.45 14 4C14 4.55 14.45 5 15 5Z" fill="#3747AC"/>
<path d="M22 3L26 3L26 -3.49691e-07L30 4L26 8L26 5L22 5L22 3Z" fill="#3747AC"/>
<path d="M18 4C18 3.45 18.45 3 19 3C19.55 3 20 3.45 20 4C20 4.55 19.55 5 19 5C18.45 5 18 4.55 18 4Z" fill="#3747AC"/>
<path d="M14 4C14 3.45 14.45 3 15 3C15.55 3 16 3.45 16 4C16 4.55 15.55 5 15 5C14.45 5 14 4.55 14 4Z" fill="#3747AC"/>
</svg>
