<svg width="212" height="90" viewBox="0 0 212 90" fill="none" xmlns="http://www.w3.org/2000/svg">
<rect width="212" height="90" fill="white"/>
<rect x="10" y="10" width="23" height="10" fill="#F3F4F6"/>
<rect x="10" y="30" width="23" height="10" fill="#F3F4F6"/>
<rect x="10" y="50" width="23" height="10" fill="#F3F4F6"/>
<rect x="55" y="50" width="147" height="10" fill="#F3F4F6"/>
<rect x="55" y="30" width="147" height="10" fill="#F3F4F6"/>
<rect x="55" y="50" width="137" height="10" fill="#E3E4E7"/>
<rect x="55" y="50" width="137" height="10" fill="#E3E4E7"/>
<rect x="55" y="30" width="115" height="10" fill="#E3E4E7"/>
<rect x="55" y="30" width="115" height="10" fill="#D9D9D9"/>
<rect x="55" y="30" width="96" height="10" fill="#E3E4E7"/>
<rect x="55" y="30" width="96" height="10" fill="#EEEEEE"/>
<rect x="55" y="10" width="147" height="10" fill="#E3E4E7"/>
<rect x="55" y="10" width="147" height="10" fill="#E3E4E7"/>
<rect x="10" y="70" width="192" height="10" fill="#BBC7E2"/>
<path d="M112 6L112 64" stroke="#BBC7E2" stroke-width="2.22"/>
</svg>
