<svg width="322" height="69" viewBox="0 0 322 69" fill="none" xmlns="http://www.w3.org/2000/svg">
<rect width="322" height="69" fill="white"/>
<rect x="10.0858" y="12.9126" width="53.5815" height="8.12278" fill="#D9D9D9"/>
<rect x="10.0858" y="33.5898" width="53.5815" height="8.12278" fill="#9C27B0"/>
<rect x="10.0858" y="52.0503" width="53.5815" height="8.12278" fill="#F3F4F6"/>
<rect x="73.1245" y="12.9126" width="53.5815" height="8.12278" fill="#2196F3"/>
<rect x="73.1245" y="33.5898" width="53.5815" height="8.12278" fill="#F3F4F6"/>
<rect x="73.1245" y="52.0503" width="53.5815" height="8.12278" fill="#F3F4F6"/>
<rect x="134.899" y="12.9126" width="53.5815" height="8.12278" fill="#2196F3"/>
<rect x="134.899" y="33.5898" width="53.5815" height="8.12278" fill="#F3F4F6"/>
<rect x="134.899" y="52.0503" width="53.5815" height="8.12278" fill="#F3F4F6"/>
<rect x="196.675" y="12.9126" width="53.5815" height="8.12278" fill="#2196F3"/>
<rect x="196.675" y="33.5898" width="53.5815" height="8.12278" fill="#F3F4F6"/>
<rect x="196.675" y="52.0503" width="53.5815" height="8.12278" fill="#F3F4F6"/>
<rect x="258.452" y="12.9126" width="53.5815" height="8.12278" fill="#2196F3"/>
<rect x="258.452" y="33.5898" width="53.5815" height="8.12278" fill="#F3F4F6"/>
<rect x="258.452" y="52.0503" width="53.5815" height="8.12278" fill="#F3F4F6"/>
</svg>
