<svg width="324" height="90" viewBox="0 0 324 90" fill="none" xmlns="http://www.w3.org/2000/svg">
<rect width="324" height="90" fill="white"/>
<rect x="7" y="10" width="100" height="10" fill="#D9D9D9"/>
<rect x="7" y="30" width="100" height="10" fill="#F3F4F6"/>
<rect x="7" y="50" width="100" height="10" fill="#F3F4F6"/>
<rect x="7" y="70" width="100" height="10" fill="#F3F4F6"/>
<rect x="114" y="10" width="46" height="10" fill="#D9D9D9"/>
<rect x="114" y="30" width="46" height="10" fill="#F3F4F6"/>
<rect x="114" y="50" width="46" height="10" fill="#F3F4F6"/>
<rect x="114" y="70" width="46" height="10" fill="#F3F4F6"/>
<rect x="167" y="10" width="45" height="10" fill="#D9D9D9"/>
<rect x="167" y="30" width="45" height="10" fill="#F3F4F6"/>
<rect x="167" y="50" width="45" height="10" fill="#F3F4F6"/>
<rect x="167" y="70" width="45" height="10" fill="#F3F4F6"/>
<rect x="219" y="10" width="46" height="10" fill="#D9D9D9"/>
<rect x="219" y="30" width="46" height="10" fill="#F3F4F6"/>
<rect x="219" y="50" width="46" height="10" fill="#F3F4F6"/>
<rect x="219" y="70" width="46" height="10" fill="#F3F4F6"/>
<rect x="272" y="10" width="45" height="10" fill="#D9D9D9"/>
<rect x="272" y="30" width="45" height="10" fill="#F3F4F6"/>
<rect x="272" y="50" width="45" height="10" fill="#F3F4F6"/>
<rect x="272" y="70" width="45" height="10" fill="#F3F4F6"/>
<rect x="9" y="50" width="308" height="10" fill="#375FAF" fill-opacity="0.3"/>
<rect x="219" y="10" width="46" height="70" fill="#BBC7E2" fill-opacity="0.3"/>
</svg>
